<svg viewBox="0 0 283.46 113.39" xmlns="http://www.w3.org/2000/svg" data-name="Layer 1" id="Layer_1">
  <defs>
    <style>
      .cls-1 {
        fill: #58595b;
      }
    </style>
  </defs>
  <path d="M46.96,35.83c-1.08-1.08-2.35-1.93-3.8-2.55-1.46-.62-3-.92-4.63-.92-1.5,0-2.91.26-4.24.79-1.32.53-2.49,1.24-3.5,2.12v-.86c0-.58-.2-1.07-.59-1.46-.4-.39-.89-.59-1.46-.59s-1.06.2-1.46.59c-.4.4-.6.89-.6,1.46v28.05c0,.57.2,1.06.6,1.46.4.39.88.59,1.46.59s1.06-.2,1.46-.59c.4-.4.59-.89.59-1.46v-18.52c.04-1.02.27-1.97.66-2.88.4-.9.95-1.69,1.66-2.35.7-.66,1.52-1.19,2.44-1.59.93-.4,1.92-.6,2.98-.6s2.06.2,3.01.6c.95.39,1.78.95,2.48,1.65.71.71,1.27,1.54,1.68,2.48.42.95.63,1.95.63,3.01v18.2c0,.57.2,1.06.6,1.46.4.39.88.59,1.46.59s1.06-.2,1.45-.59c.4-.4.6-.89.6-1.46v-18.2c0-1.63-.31-3.17-.92-4.63-.62-1.46-1.47-2.72-2.55-3.81" class="cls-1"></path>
  <path d="M87.09,53.16c-.62,1.44-1.47,2.69-2.55,3.78-1.08,1.08-2.35,1.92-3.8,2.55-1.45.62-3,.92-4.63.92s-3.16-.31-4.6-.92c-1.43-.62-2.69-1.47-3.77-2.55-1.08-1.08-1.93-2.34-2.55-3.78-.62-1.43-.93-2.96-.93-4.59s.31-3.17.93-4.63c.62-1.46,1.46-2.72,2.55-3.8,1.08-1.08,2.34-1.93,3.77-2.55,1.43-.62,2.97-.92,4.6-.92s3.18.3,4.63.92c1.46.61,2.72,1.46,3.8,2.55,1.08,1.08,1.93,2.35,2.55,3.8.62,1.46.93,3,.93,4.63s-.31,3.16-.93,4.59M87.35,37.25c-1.46-1.46-3.14-2.61-5.06-3.47-1.92-.86-3.94-1.29-6.06-1.29-2.29.09-4.42.56-6.38,1.42-1.96.86-3.66,2.01-5.09,3.44-1.43,1.43-2.56,3.11-3.37,5.03-.82,1.92-1.22,3.98-1.22,6.19s.42,4.41,1.25,6.35c.84,1.94,1.99,3.62,3.44,5.03,1.46,1.42,3.14,2.52,5.06,3.31,1.92.79,3.98,1.19,6.18,1.19s4.35-.42,6.29-1.26c1.93-.84,3.62-1.98,5.06-3.44,1.43-1.46,2.57-3.15,3.41-5.06.84-1.92,1.26-3.96,1.26-6.12s-.43-4.28-1.29-6.22c-.86-1.94-2.02-3.64-3.47-5.09" class="cls-1"></path>
  <path d="M137.83,35.34c-.97-.97-2.12-1.74-3.44-2.31-1.32-.58-2.73-.86-4.23-.86-1.86,0-3.53.41-5.03,1.22-1.5.82-2.75,1.91-3.77,3.28-.97-1.37-2.21-2.46-3.7-3.28-1.5-.82-3.18-1.22-5.03-1.22-1.28,0-2.53.31-3.74.93-1.21.62-2.19,1.3-2.94,2.05v-.73c0-.57-.2-1.06-.59-1.46-.4-.4-.88-.59-1.46-.59s-1.06.2-1.46.59c-.39.39-.59.88-.59,1.46v28.05c0,.57.2,1.06.59,1.45.4.4.88.6,1.46.6s1.06-.2,1.46-.6c.39-.4.59-.88.59-1.45v-19.71c.09-1.81.76-3.34,2.02-4.6,1.25-1.26,2.81-1.89,4.66-1.89s3.36.64,4.66,1.92c1.3,1.28,2,2.89,2.08,4.83v19.45c0,.57.2,1.06.6,1.45.4.4.88.6,1.46.6s1.06-.2,1.46-.6c.4-.4.59-.88.59-1.45v-19.45c0-.93.18-1.8.53-2.61.35-.82.83-1.54,1.42-2.15.6-.62,1.3-1.1,2.12-1.46.82-.35,1.69-.53,2.61-.53s1.8.18,2.61.53c.82.35,1.53.84,2.15,1.46.62.62,1.1,1.34,1.46,2.15.35.81.52,1.68.52,2.61v19.45c0,.57.2,1.06.6,1.45.4.4.88.6,1.45.6s1.06-.2,1.46-.6c.39-.4.59-.88.59-1.45v-19.45c0-1.5-.29-2.91-.86-4.23-.58-1.32-1.35-2.47-2.32-3.44" class="cls-1"></path>
  <path d="M219.07,53.16c-.62,1.43-1.46,2.69-2.55,3.77-1.08,1.08-2.34,1.93-3.77,2.55-1.44.62-2.97.92-4.6.92s-3.17-.31-4.63-.92c-1.46-.62-2.72-1.47-3.8-2.55-1.08-1.08-1.93-2.34-2.55-3.77-.62-1.43-.93-2.96-.93-4.6s.31-3.17.93-4.63c.62-1.46,1.46-2.72,2.55-3.8,1.08-1.08,2.35-1.93,3.8-2.54,1.46-.62,3-.93,4.63-.93s3.09.29,4.5.89c1.41.6,2.65,1.42,3.7,2.48,1.06,1.06,1.91,2.31,2.55,3.77.64,1.45,1,3.04,1.09,4.76,0,1.63-.31,3.16-.93,4.6M222.05,22.23c-.57,0-1.06.2-1.45.6-.4.4-.6.88-.6,1.45v14.22c-1.45-1.59-3.2-2.96-5.23-4.14-2.03-1.17-4.28-1.8-6.75-1.88-2.11,0-4.13.43-6.05,1.29-1.92.86-3.61,2.02-5.06,3.47-1.46,1.45-2.61,3.15-3.47,5.09-.86,1.94-1.29,4.01-1.29,6.22s.42,4.2,1.26,6.12c.84,1.92,1.97,3.61,3.41,5.06,1.43,1.46,3.12,2.61,5.06,3.44,1.94.84,4.04,1.26,6.28,1.26s4.22-.4,6.15-1.19c1.94-.8,3.64-1.9,5.09-3.31l.6-.59v3.11c0,.57.2,1.06.6,1.46.39.39.88.59,1.45.59s1.06-.2,1.46-.59c.4-.4.6-.89.6-1.46V24.29c0-.57-.2-1.06-.6-1.45-.4-.4-.88-.6-1.46-.6" class="cls-1"></path>
  <path d="M255.82,50.88c-.64-1.1-1.5-2.05-2.58-2.84-1.09-.8-2.35-1.45-3.78-1.95-1.43-.51-2.96-.9-4.59-1.16-.7-.13-1.45-.29-2.22-.46-.77-.18-1.48-.43-2.12-.77-.64-.33-1.17-.74-1.59-1.22-.42-.48-.63-1.06-.63-1.72,0-.93.21-1.67.63-2.25.41-.57.94-1.03,1.55-1.36.61-.33,1.31-.55,2.08-.66.77-.1,1.53-.16,2.28-.16,1.41,0,2.69.21,3.84.63,1.14.42,1.92,1.04,2.31,1.88.44.98,1.08,1.46,1.92,1.46.75,0,1.29-.23,1.63-.69.32-.47.49-.94.49-1.43,0-.97-.33-1.81-1-2.51-.66-.71-1.49-1.3-2.51-1.79-1.02-.49-2.12-.85-3.31-1.09-1.19-.24-2.31-.37-3.37-.37-1.28,0-2.56.15-3.84.43-1.28.29-2.43.76-3.44,1.42-1.01.66-1.83,1.52-2.45,2.58-.62,1.05-.93,2.36-.93,3.9,0,2.47.98,4.35,2.94,5.66,1.96,1.3,4.54,2.17,7.71,2.62,2.2.31,4.05.97,5.56,1.98,1.49,1.01,2.25,2.25,2.25,3.7,0,1.81-.76,3.21-2.29,4.2-1.52,1-3.36,1.49-5.52,1.49-1.54,0-3.01-.36-4.4-1.09-1.39-.73-2.38-1.8-2.95-3.21-.22-.48-.52-.87-.89-1.15-.38-.29-.81-.43-1.29-.43-.62,0-1.11.22-1.48.66-.38.44-.56.95-.56,1.52,0,.26.02.47.07.6.7,2.25,2.1,4.01,4.2,5.29,2.1,1.28,4.53,1.91,7.31,1.91,1.63,0,3.17-.23,4.63-.69,1.46-.47,2.72-1.13,3.81-1.98,1.08-.87,1.93-1.9,2.54-3.12.62-1.21.93-2.55.93-4s-.32-2.73-.96-3.84" class="cls-1"></path>
  <path d="M172.82,58.68c-1.93,1.1-4.26,1.8-6.82,1.8-1.7,0-3.16-.2-4.37-.55-1.82-.53-3.1-1.36-3.93-2.36-.83-.99-1.24-2.16-1.24-3.46,0-.71.2-1.41.58-2.08.57-1.01,1.57-1.94,2.91-2.62,1.33-.67,2.99-1.09,4.87-1.09h13.18v3c0,1.01-.3,2.1-.88,3.16-.87,1.58-2.37,3.1-4.29,4.2M182.4,42.12c0-.07,0-.14-.02-.21-.05-1.37-.47-2.66-1.18-3.82-1.14-1.85-2.98-3.33-5.21-4.36-2.23-1.02-4.85-1.6-7.61-1.6-4.06,0-7.81.9-10.92,2.49-.08,0-.14.02-.21.06l-1.3.72c-.15.09-.29.19-.42.3l-.05.03v.02c-.69.68-.86,1.74-.34,2.6.55.91,1.69,1.29,2.69.95l.03.04.27-.16s.06-.03.09-.05l1.29-.72s.05-.03.08-.06c2.32-1.17,5.32-1.99,8.78-1.99,2.85,0,5.31.78,7.01,1.92.85.57,1.51,1.22,1.95,1.89.43.68.65,1.36.65,2.04v1.8h-13.18c-3.4,0-6.56,1.05-8.92,2.83-1.18.89-2.15,1.97-2.83,3.19-.68,1.23-1.07,2.61-1.07,4.07s.33,2.92.96,4.22c.96,1.95,2.61,3.57,4.83,4.69,2.21,1.12,4.99,1.75,8.22,1.75,4.95,0,9.39-1.99,12.31-5.17v3.21c0,1.08.92,1.96,2.04,1.96s2.04-.88,2.04-1.96v-12.97h0v-7.72Z" class="cls-1"></path>
  <path d="M233.19,80.88h1.69c.59,0,1.03.14,1.32.41.29.27.43.65.43,1.13s-.15.88-.44,1.12c-.29.25-.76.37-1.4.37h-1.61v-3.03ZM235.08,85.19c.49,0,.87.14,1.15.43.28.29.42.68.42,1.17v.77c0,.31.02.61.07.92.05.31.16.53.33.68h1.64v-.15c-.16-.14-.28-.34-.35-.61-.07-.27-.1-.54-.1-.82v-.79c0-.57-.12-1.05-.36-1.43-.24-.38-.63-.66-1.16-.84.49-.21.86-.5,1.12-.85.26-.36.39-.78.39-1.28,0-.89-.29-1.58-.87-2.06-.58-.48-1.4-.72-2.47-.72h-3.29v9.55h1.59v-3.96h1.88ZM223.26,81.82h.04l1.23,3.77h-2.51l1.25-3.77ZM225.68,89.15h1.65l-3.29-9.55h-1.52l-3.33,9.55h1.65l.74-2.23h3.38l.73,2.23ZM214.79,83.58h-3.74v-2.7h4.36v-1.28h-5.96v9.55h6v-1.27h-4.41v-3.03h3.74v-1.28ZM200.21,79.6h-1.4l-1.82,6.88h-.04l-1.42-6.88h-1.67l2.26,9.55h1.45l1.92-6.8h.04l1.91,6.8h1.45l2.27-9.55h-1.68l-1.4,6.89h-.04l-1.83-6.89ZM183.84,84.4c0,.42.13.75.4,1.01.26.26.62.38,1.06.38s.8-.13,1.06-.38c.26-.25.39-.59.39-1.01v-.51c0-.42-.13-.75-.4-1.01-.27-.26-.62-.39-1.07-.39s-.79.13-1.06.39c-.26.27-.39.6-.39,1.01v.51ZM174.07,83.58h-3.74v-2.7h4.36v-1.28h-5.96v9.55h6v-1.27h-4.41v-3.03h3.74v-1.28ZM163.64,79.6h-1.59v4.2h-4.27v-4.2h-1.59v9.55h1.59v-4.08h4.27v4.08h1.59v-9.55ZM151.87,79.6h-7.45v1.28h2.91v8.27h1.59v-8.27h2.95v-1.28ZM137.44,81.82h.04l1.23,3.77h-2.51l1.25-3.77ZM139.87,89.15h1.65l-3.29-9.55h-1.52l-3.33,9.55h1.65l.73-2.23h3.39l.73,2.23ZM128.97,83.58h-3.74v-2.7h4.36v-1.28h-5.96v9.55h6v-1.27h-4.41v-3.03h3.74v-1.28ZM113.59,80.88h1.69c.59,0,1.03.14,1.32.41.29.27.43.65.43,1.13s-.15.88-.44,1.12c-.29.25-.76.37-1.4.37h-1.61v-3.03ZM115.47,85.19c.49,0,.87.14,1.15.43.28.29.42.68.42,1.17v.77c0,.31.02.61.07.92.05.31.16.53.34.68h1.64v-.15c-.16-.14-.28-.34-.35-.61-.07-.27-.1-.54-.1-.82v-.79c0-.57-.12-1.05-.36-1.43-.24-.38-.62-.66-1.17-.84.49-.21.86-.5,1.12-.85.25-.36.38-.78.38-1.28,0-.89-.29-1.58-.87-2.06-.58-.48-1.4-.72-2.47-.72h-3.29v9.55h1.59v-3.96h1.88ZM101.95,80.88h1.53c.58,0,1.02.12,1.32.34.3.23.45.58.45,1.05,0,.43-.14.76-.43.99-.29.24-.68.35-1.17.35h-1.71v-2.74ZM104.06,84.81h.08c.53.02.94.17,1.23.45.29.28.44.67.44,1.15s-.15.84-.44,1.09c-.3.25-.72.38-1.27.38h-2.15v-3.07h2.11ZM104.1,89.15c1.03,0,1.84-.23,2.43-.7.59-.46.88-1.15.88-2.04,0-.58-.16-1.08-.5-1.51-.33-.43-.8-.7-1.41-.8.42-.17.75-.43.99-.77.24-.34.36-.72.36-1.14,0-.87-.3-1.51-.89-1.95-.6-.44-1.42-.65-2.48-.65h-3.13v9.55h3.75ZM89.52,84.4c0,.42.13.75.4,1.01.26.26.62.38,1.06.38s.8-.13,1.06-.38c.27-.25.4-.59.4-1.01v-.51c0-.42-.13-.75-.4-1.01-.26-.26-.62-.39-1.07-.39s-.79.13-1.06.39c-.26.27-.39.6-.39,1.01v.51ZM79.74,83.58h-3.74v-2.7h4.36v-1.28h-5.96v9.55h6v-1.27h-4.41v-3.03h3.74v-1.28ZM63.58,79.6h-1.7l3.4,9.55h1.52l3.41-9.55h-1.7l-2.28,6.97-.16.68h-.04l-.17-.7-2.28-6.96ZM57.56,79.6h-1.59v9.55h1.59v-9.55ZM46.92,79.6h-1.59v9.55h6.07v-1.27h-4.47v-8.28Z" class="cls-1"></path>
</svg>