<svg viewBox="0 0 283.46 283.46" xmlns="http://www.w3.org/2000/svg" data-name="Layer 1" id="Layer_1">
  <defs>
    <style>
      .cls-1 {
        fill: #939598;
      }

      .cls-2 {
        fill: #4d4d4f;
      }
    </style>
  </defs>
  <path d="M223.78,126.1c0-19.05-.21-36.17.05-53.28.24-15.36-5.77-24.75-19.99-25.21-15.05-.48-21.95,9.21-22.11,25.21-.19,17.18-.04,34.36-.04,52.99h-30.73c0-21.83-1.53-42.84.35-63.49,2.69-29.56,25.88-49.19,53.56-48.15,28.13,1.05,48.78,21.74,50.33,51.97.99,19.54.18,39.2.18,59.95h-31.6Z" class="cls-2"></path>
  <path d="M57.86,126.25h-29.25c0-24.99-2.22-49.3.61-72.88,2.94-24.51,26.26-40.26,50.82-39.11,25.53,1.2,44.81,20.25,48.23,48.22.76,6.21.12,12.64.12,20.68h-29.51c-.44-4.81-.9-9.71-1.31-14.6-1.16-13.62-7.87-21.05-20.28-20.92-12.74.12-18.95,8.61-19.3,21.91-.49,18.37-.12,36.78-.12,56.71" class="cls-2"></path>
  <path d="M223.78,130.09c0,19.04-.21,36.17.05,53.26.24,15.37-5.77,24.76-19.99,25.21-15.05.5-21.95-9.2-22.11-25.21-.19-17.17-.04-34.34-.04-52.99h-30.73c0,21.83-1.53,42.85.35,63.49,2.69,29.56,25.88,49.19,53.56,48.14,28.13-1.05,48.78-21.73,50.33-51.96.99-19.53.18-39.2.18-59.94h-31.6Z" class="cls-1"></path>
  <path d="M57.86,129.94h-29.26c0,24.97-2.21,49.3.62,72.88,2.94,24.51,26.26,40.24,50.82,39.1,25.53-1.2,44.81-20.26,48.23-48.21.76-6.21.12-12.63.12-20.69h-29.52c-.42,4.81-.89,9.71-1.31,14.6-1.17,13.64-7.87,21.05-20.29,20.93-12.74-.12-18.94-8.61-19.29-21.92-.49-18.38-.12-36.78-.12-56.7" class="cls-1"></path>
</svg>