<svg viewBox="0 0 283.46 283.46" xmlns="http://www.w3.org/2000/svg" data-name="Layer 1" id="Layer_1">
  <defs>
    <style>
      .cls-1 {
        fill: #4d4d4f;
      }
    </style>
  </defs>
  <rect height="21.5" width="3.88" y="102.55" x="157.07" class="cls-1"></rect>
  <polygon points="86.61 114.89 94.03 114.89 94.03 111.4 86.61 111.4 86.61 106.04 95.38 106.04 95.38 102.52 82.78 102.52 82.78 124.05 86.61 124.05 86.61 114.89" class="cls-1"></polygon>
  <polygon points="196.94 124.02 200.68 124.02 200.68 102.55 196.85 102.55 196.85 107.63 197.27 116.7 190.97 102.55 187.14 102.55 187.14 124.02 190.97 124.02 190.97 118.54 190.63 110.39 196.94 124.02" class="cls-1"></polygon>
  <polygon points="150.71 124.02 150.71 102.88 146.88 102.88 146.88 112.01 140.18 112.01 140.18 102.88 136.3 102.88 136.3 124.05 140.18 124.05 140.18 115.53 146.88 115.53 146.88 124.02 150.71 124.02" class="cls-1"></polygon>
  <path d="M126.31,111.48c-3.27-.5-5.42-.28-5.42-2.99,0-2.04.86-2.71,2.99-2.71,1.87,0,2.82.53,2.93,2.35h3.88c-.36-4.3-2.93-5.72-6.81-5.72-4.41,0-6.87,2.09-6.87,6.11,0,4.44,2.57,5.64,5,5.95,2.29.31,5.3.31,5.3,2.85s-1.06,3.41-3.38,3.41c-2.46,0-3.18-.89-3.27-2.54h-3.88c0,3.46,1.7,6.06,7.06,6.06s7.31-2.09,7.31-7.06c0-4.3-2.37-5.3-4.86-5.7Z" class="cls-1"></path>
  <path d="M174.08,102.27c-5.19,0-7.18,1.87-7.18,6.42v9.1c0,4.44,2.07,6.42,7.18,6.42s7.34-1.98,7.34-6.42v-9.1c0-4.55-2.15-6.42-7.34-6.42ZM177.56,117.59c0,2.04-.7,3.21-3.49,3.21s-3.32-1.17-3.32-3.21v-8.71c0-1.95.53-3.21,3.32-3.21,2.99,0,3.49,1.26,3.49,3.21v8.71Z" class="cls-1"></path>
  <path d="M107.63,102.55h-3.83l-5.95,21.47h3.96l1.12-3.8h5.5l1.09,3.8h3.97l-5.86-21.47ZM103.89,116.45l1.79-7.96,1.79,7.96h-3.57Z" class="cls-1"></path>
  <polygon points="222.04 133.91 222.46 142.98 216.15 128.83 212.32 128.83 212.32 150.3 216.15 150.3 216.15 144.82 215.81 136.67 222.12 150.3 225.86 150.3 225.86 128.83 222.04 128.83 222.04 133.91" class="cls-1"></polygon>
  <path d="M199.96,128.55c-5.19,0-7.18,1.87-7.18,6.42v9.1c0,4.44,2.06,6.42,7.18,6.42s7.34-1.98,7.34-6.42v-9.1c0-4.55-2.15-6.42-7.34-6.42ZM203.45,143.87c0,2.04-.7,3.21-3.49,3.21s-3.32-1.17-3.32-3.21v-8.71c0-1.95.53-3.21,3.32-3.21,2.99,0,3.49,1.26,3.49,3.21v8.71Z" class="cls-1"></path>
  <polygon points="102.02 135.33 100.04 145.44 98.03 135.39 96.16 128.83 92.22 128.83 98.03 150.33 102.05 150.33 107.83 128.83 103.89 128.83 102.02 135.33" class="cls-1"></polygon>
  <path d="M70.64,136.36v-1.12c0-4.55-2.43-6.45-7.62-6.45h-5.42v21.5h3.85v-7.57h1.42l4.27,7.57h4.5l-4.72-8.18c2.6-.84,3.71-2.57,3.71-5.75ZM66.59,136.17c0,2.04-.78,3.01-3.57,3.01h-1.59v-6.84h1.65c2.99,0,3.52,1.06,3.52,3.1v.73Z" class="cls-1"></path>
  <polygon points="135.19 128.8 131.3 128.8 131.3 150.3 143.48 150.3 143.48 146.78 135.19 146.78 135.19 128.8" class="cls-1"></polygon>
  <polygon points="166.26 132.32 170.73 132.32 170.73 150.3 174.55 150.3 174.55 132.32 178.99 132.32 178.99 128.88 166.26 128.88 166.26 132.32" class="cls-1"></polygon>
  <polygon points="79.97 141.14 87.22 141.14 87.22 137.68 79.97 137.68 79.97 132.15 88.48 132.15 88.48 128.8 76.11 128.8 76.11 150.33 88.87 150.33 88.87 146.81 79.97 146.81 79.97 141.14" class="cls-1"></polygon>
  <rect height="21.5" width="3.88" y="128.83" x="183.51" class="cls-1"></rect>
  <path d="M118.49,128.55c-5.19,0-7.18,1.87-7.18,6.42v9.1c0,4.44,2.07,6.42,7.18,6.42s7.34-1.98,7.34-6.42v-9.1c0-4.55-2.15-6.42-7.34-6.42ZM121.98,143.87c0,2.04-.7,3.21-3.49,3.21s-3.32-1.17-3.32-3.21v-8.71c0-1.95.53-3.21,3.32-3.21,2.99,0,3.49,1.26,3.49,3.21v8.71Z" class="cls-1"></path>
  <path d="M158.27,143.74c0,2.04-1.09,3.35-3.38,3.35s-3.18-1.31-3.18-3.35v-14.91h-3.85v15.1c0,4.44,2.51,6.56,7.04,6.56s7.23-2.12,7.23-6.56v-15.1h-3.85v14.91Z" class="cls-1"></path>
  <path d="M26.56,243.01h230.34V12.67H26.56v230.33ZM37.45,23.56h208.57v208.55H37.45V23.56Z" class="cls-1"></path>
</svg>