<svg viewBox="0 0 283.46 283.46" xmlns="http://www.w3.org/2000/svg" data-name="Layer 1" id="Layer_1">
  <defs>
    <style>
      .cls-1 {
        letter-spacing: .01em;
      }

      .cls-2 {
        letter-spacing: .07em;
      }

      .cls-3, .cls-4 {
        fill: #4d4d4f;
      }

      .cls-5 {
        letter-spacing: .07em;
      }

      .cls-4 {
        font-family: Arial-BoldMT, Arial;
        font-size: 22px;
        font-weight: 700;
      }
    </style>
  </defs>
  <g>
    <path d="M79.69,206.06c3.94,3.07,4.95,7.52,1.74,11.6-3.07,3.9-7.93,3.99-11.69,1.05-1.24-.96-2.52-2.25-3.39-3.53l1.74-1.97c.6,1.24,1.56,2.29,2.61,3.16,2.7,2.11,5.77,1.79,7.88-.92,1.92-2.43,2.2-5.36-.46-7.43-.64-.5-1.33-.92-2.15-1.19l-2.06,2.61,1.6,1.28-1.42,1.79-4.03-3.16,4.63-5.91c1.88.55,3.48,1.47,5,2.61" class="cls-3"></path>
    <polygon points="70.52 198.22 58.92 208.58 56.63 206.01 66.17 197.49 61.72 192.49 63.78 190.66 70.52 198.22" class="cls-3"></polygon>
    <path d="M57.92,181.72c2.66,4.22,1.38,8.16-2.7,10.73-3.99,2.52-8.25,1.97-10.86-2.15-2.66-4.22-1.42-8.16,2.7-10.77,4.03-2.57,8.25-1.97,10.86,2.2M46.41,189.01c1.6,2.57,4.77,1.74,6.92.37,2.11-1.33,4.22-3.85,2.61-6.42-1.65-2.61-4.72-1.79-6.92-.41-2.25,1.42-4.31,3.85-2.61,6.46" class="cls-3"></path>
    <path d="M49.34,165.45l2.11,5.27-14.49,5.78-2.34-5.91c-.96-2.38-1.1-5.09,1.69-6.19,1.84-.73,3.44-.09,4.54,1.51-.41-1.92.18-3.8,2.15-4.58,3.39-1.38,5.23,1.28,6.33,4.13M37.01,170.81l.73,1.79,4.13-1.65-.6-1.56c-.55-1.42-1.6-2.7-3.3-2.02-1.51.64-1.47,2.15-.96,3.44M43.2,168.84l.55,1.38,4.54-1.79-.59-1.51c-.6-1.47-1.7-3.03-3.49-2.29-2.02.78-1.65,2.66-1.01,4.22" class="cls-3"></path>
    <path d="M43.43,143.95l-3.58,2.11,1.33,6.51,4.08.6.69,3.35-16.46-2.75-.92-4.45,14.12-8.89.73,3.53ZM31.24,151.15l7.52,1.19-1.01-5.09-6.51,3.9Z" class="cls-3"></path>
    <polygon points="42.56 135.65 26.98 136.02 26.88 132.58 39.72 132.26 39.53 125.57 42.28 125.52 42.56 135.65" class="cls-3"></polygon>
    <path d="M45.95,103.38c-1.28,4.81-5.04,6.56-9.72,5.32-4.58-1.24-7.06-4.72-5.82-9.44,1.28-4.81,5.04-6.6,9.72-5.36,4.68,1.28,7.1,4.77,5.82,9.49M32.75,99.9c-.78,2.93,1.97,4.68,4.4,5.32,2.43.64,5.68.46,6.46-2.43.78-2.98-1.88-4.68-4.4-5.36-2.48-.64-5.64-.55-6.46,2.48" class="cls-3"></path>
    <path d="M53.47,83.12l-4.72-.46c-1.61-.18-2.15-.05-2.93,1.47l-.55,1.15,5.82,2.8-1.47,3.07-14.07-6.74,2.75-5.73c1.15-2.38,3.21-4.35,6.01-2.98,1.93.92,2.43,2.93,1.83,4.86.87-1.15,1.74-1.38,3.16-1.24l5.68.5-1.51,3.3ZM39.86,80.83l-.73,1.51,4.08,1.97.69-1.42c.69-1.42.96-3.12-.69-3.94-1.65-.83-2.61.37-3.34,1.88" class="cls-3"></path>
    <path d="M62.27,69.69c-2.93,4.03-7.33,5.18-11.51,2.2-3.99-2.89-4.26-7.79-1.47-11.64.92-1.28,2.16-2.57,3.39-3.48l2.02,1.65c-1.24.64-2.25,1.65-3.03,2.75-2.02,2.8-1.56,5.82,1.19,7.84,2.52,1.83,5.46,1.97,7.43-.73.5-.69.87-1.38,1.1-2.2l-2.71-1.97-1.19,1.65-1.83-1.33,3.02-4.17,6.1,4.4c-.6,1.88-1.42,3.53-2.52,5.04" class="cls-3"></path>
    <path d="M77.22,53.19l-3.67-1.92-4.86,4.54,1.65,3.8-2.47,2.34-6.33-15.45,3.3-3.12,14.99,7.29-2.61,2.52ZM64.65,46.59l2.93,7.01,3.81-3.58-6.74-3.44Z" class="cls-3"></path>
    <polygon points="90.92 43.47 79.32 35.72 86.06 46.5 83.45 48.15 75.24 34.9 79.51 32.24 91.15 40.03 84.41 29.17 87.02 27.56 95.23 40.81 90.92 43.47" class="cls-3"></polygon>
    <polygon points="101.23 38.15 95.09 23.8 98.3 22.43 104.4 36.78 101.23 38.15" class="cls-3"></polygon>
    <path d="M117.87,32.65c-4.86,1.33-8.99-.5-10.36-5.5-1.28-4.72,1.51-8.75,6.1-9.99,1.19-.32,2.7-.5,3.9-.5l.55,2.52c-1.01-.14-2.25-.05-3.26.23-3.21.87-4.63,3.62-3.8,6.74.87,3.21,3.35,4.81,6.65,3.9,1.1-.32,2.15-.78,3.03-1.51l.78,2.38c-.92.82-2.34,1.42-3.58,1.74" class="cls-3"></path>
    <polygon points="145.74 16.79 145.42 29.63 141.94 29.53 142.26 16.7 137.36 16.61 137.45 13.86 150.69 14.13 150.6 16.93 145.74 16.79" class="cls-3"></polygon>
    <polygon points="154.91 30.31 157.71 15 167.7 16.79 167.24 19.17 160.59 17.94 159.86 21.97 166.23 23.12 165.77 25.45 159.45 24.26 158.67 28.57 165.5 29.81 165.09 32.15 154.91 30.31" class="cls-3"></polygon>
    <polygon points="179.62 37.01 178.15 29.72 172.19 34.26 168.66 32.93 176.82 27.29 174.62 18.53 178.33 19.91 179.71 26.46 184.98 22.34 188.42 23.62 180.99 28.85 183.47 38.38 179.62 37.01" class="cls-3"></polygon>
    <polygon points="198.73 32.28 192.36 43.42 189.34 41.68 195.71 30.59 191.49 28.16 192.82 25.78 204.33 32.33 202.95 34.71 198.73 32.28" class="cls-3"></polygon>
    <rect transform="translate(46.8 181.51) rotate(-52.75)" height="3.44" width="15.59" y="41.85" x="198.64" class="cls-3"></rect>
    <polygon points="208.63 55.39 219.64 44.39 222.11 46.82 213.04 55.89 217.8 60.61 215.83 62.58 208.63 55.39" class="cls-3"></polygon>
    <polygon points="218.72 66.02 231.23 56.76 237.28 64.92 235.36 66.34 231.32 60.89 228.07 63.32 231.88 68.5 230 69.92 226.15 64.74 222.66 67.31 226.79 72.94 224.86 74.37 218.72 66.02" class="cls-3"></polygon>
    <path d="M234.26,93.57c-.55-1.51-.96-3.12-1.05-4.72l2.52-.83c-.18,1.51.14,2.98.64,4.4.5,1.38,1.51,2.61,3.07,2.06,1.1-.41,1.15-2.2,1.19-3.39l.09-1.74c.09-2.02.64-3.67,2.66-4.4,3.16-1.19,5.41,1.7,6.37,4.35.46,1.24.78,2.52.92,3.85l-2.43.78c.05-1.19-.23-2.48-.64-3.62-.46-1.19-1.42-2.75-2.89-2.2-1.01.37-1.05,1.83-1.1,2.93l-.05,1.79c-.05,2.2-.5,3.99-2.8,4.86-3.12,1.19-5.45-1.24-6.51-4.13" class="cls-3"></path>
    <polygon points="251.86 107.97 239.3 110.53 238.61 107.14 251.17 104.57 250.21 99.76 252.87 99.21 255.53 112.18 252.82 112.73 251.86 107.97" class="cls-3"></polygon>
    <path d="M241.09,130.11l3.85-1.51-.23-6.6-3.94-1.28-.09-3.39,15.77,5.41.14,4.54-15.36,6.46-.14-3.62ZM254.29,125.02l-7.2-2.38.18,5.23,7.01-2.84Z" class="cls-3"></path>
    <polygon points="239.39 146.7 252.87 143.08 240.31 141.06 240.77 138.04 256.17 140.51 255.34 145.51 241.87 149.17 254.43 151.19 253.92 154.22 238.57 151.74 239.39 146.7" class="cls-3"></polygon>
    <path d="M234.99,162.88l1.83-4.9,14.58,5.55-2.06,5.41c-1.79,4.72-5.32,6.46-10.09,4.68-4.95-1.93-6.05-5.96-4.26-10.73M247.32,167.56l.64-1.7-10.13-3.85-.46,1.19c-1.24,3.3-.18,5.64,3.16,6.92,2.93,1.15,5.59.55,6.78-2.57" class="cls-3"></path>
    <path d="M224.31,184.1l4.03.83,3.44-5.68-2.61-3.21,1.74-2.93,10.27,13.16-2.34,3.9-16.41-2.98,1.88-3.07ZM238.16,187.04l-4.72-5.96-2.7,4.45,7.43,1.51Z" class="cls-3"></path>
    <path d="M214.09,196.85l4.4,1.74c1.51.6,2.06.64,3.21-.64l.83-.96-4.86-4.26,2.25-2.52,11.69,10.31-4.22,4.77c-1.74,2.02-4.26,3.3-6.6,1.24-1.6-1.42-1.51-3.48-.46-5.18-1.15.87-2.06.82-3.39.32l-5.36-2.02,2.52-2.8ZM226.56,202.76l1.1-1.24-3.39-2.98-1.05,1.19c-1.05,1.19-1.79,2.75-.41,3.99,1.42,1.15,2.66.28,3.76-.96" class="cls-3"></path>
    <path d="M204.05,206.11l4.13-3.25,9.63,12.24-4.54,3.58c-3.94,3.12-7.88,2.84-11.05-1.19-3.26-4.17-2.16-8.21,1.83-11.37M212.21,216.47l1.42-1.1-6.69-8.48-1.01.78c-2.8,2.2-3.07,4.72-.87,7.56,1.97,2.43,4.58,3.3,7.15,1.24" class="cls-3"></path>
    <path d="M114.89,240.12c-4.86-1.24-7.61-4.9-6.33-9.95,1.19-4.81,5.64-6.92,10.31-5.73,1.51.37,3.21,1.05,4.54,1.88l-.78,2.52c-1.05-.92-2.38-1.47-3.67-1.83-3.35-.83-6.05.73-6.88,4.08-.78,3.03.18,5.82,3.44,6.65.82.23,1.6.32,2.47.23l.82-3.26-2.02-.5.55-2.2,5,1.24-1.83,7.33c-1.92.18-3.8,0-5.64-.46" class="cls-3"></path>
    <path d="M134.33,243.01c-4.95-.32-7.38-3.62-7.06-8.48.32-4.72,3.25-7.79,8.11-7.47,4.95.32,7.43,3.62,7.1,8.48-.37,4.77-3.3,7.79-8.16,7.47M135.16,229.48c-3.03-.18-4.17,2.84-4.35,5.32-.18,2.52.64,5.64,3.62,5.87,3.07.18,4.22-2.75,4.35-5.32.23-2.61-.5-5.68-3.62-5.87" class="cls-3"></path>
    <polygon points="153.77 229.94 155.05 242.64 151.61 243.01 150.33 230.31 145.51 230.77 145.24 228.02 158.35 226.73 158.62 229.44 153.77 229.94" class="cls-3"></polygon>
    <path d="M170.31,240.17c-1.51.41-3.12.64-4.68.55l-.55-2.52c1.47.32,2.93.18,4.35-.18,1.38-.37,2.71-1.24,2.29-2.8-.27-1.15-2.02-1.33-3.21-1.51l-1.65-.28c-1.93-.27-3.48-1.01-4.03-2.98-.83-3.21,2.2-5.04,4.86-5.78,1.24-.32,2.52-.5,3.81-.5l.5,2.47c-1.15-.18-2.43-.05-3.58.23-1.19.32-2.8,1.1-2.43,2.57.28,1.01,1.7,1.24,2.75,1.33l1.74.18c2.16.28,3.85.92,4.45,3.21.87,3.21-1.74,5.22-4.63,6" class="cls-3"></path>
    <rect transform="translate(-149.79 214.35) rotate(-64.71)" height="3.57" width="3.21" y="223.61" x="92.68" class="cls-3"></rect>
    <polygon points="187.46 227.56 186.13 224.72 189.34 223.16 190.71 226.05 187.46 227.56" class="cls-3"></polygon>
    <path d="M141.71,41.68c-47.86,0-86.59,38.78-86.59,86.59s38.78,86.59,86.59,86.59,86.59-38.78,86.59-86.59-38.78-86.59-86.59-86.59ZM140.06,184.75h-29.7v-62.16l-19.53,19.53-20.99-20.99,48.96-48.96,21.27,21.27v91.31ZM192.64,142.07l-19.48-19.48v62.16h-29.7v-91.31l21.22-21.22,48.96,48.86-20.99,20.99Z" class="cls-3"></path>
  </g>
  <text transform="translate(69.99 270.32)" class="cls-4"><tspan y="0" x="0" class="cls-5">GOTS-</tspan><tspan y="0" x="77.36" class="cls-1">1</tspan><tspan y="0" x="89.92" class="cls-2">1381</tspan></text>
</svg>