<svg viewBox="0 0 283.46 283.46" xmlns="http://www.w3.org/2000/svg" data-name="Layer 1" id="Layer_1">
  <defs>
    <style>
      .cls-1 {
        fill: #4d4d4f;
      }
    </style>
  </defs>
  <path d="M59.2,156.37c.78,2.53,1.04,4.75.98,6.86l2.22-.39c.05-2.28-.34-4.63-1.15-7.27-1.7-5.51-5.55-9.97-11.09-8.26-2.95.91-4.28,2.7-4.95,4.88-.86,2.78-.5,6.1-.93,8.79-.33,2.2-1.08,3.98-3.33,4.67-3.21.99-5.71-1-6.82-4.6-.56-1.8-.71-3.51-.65-4.7l-2.15.37c-.03,1.39.03,3.09.74,5.39,1.36,4.4,5.11,7.34,9.71,5.92,2.91-.9,4.13-2.78,4.72-4.93.93-3.51.15-7.8,1.64-10.73.6-1.19,1.53-2.11,3.1-2.59,3.63-1.12,6.47,1.69,7.98,6.58Z" class="cls-1"></path>
  <path d="M56.82,128.56c-.01-7.13-4.75-11.44-14.95-11.42-10.21.02-14.89,4.35-14.87,11.48.01,7.2,4.7,11.48,14.91,11.46,10.21-.02,14.93-4.31,14.91-11.51ZM29.32,128.61c0-5.17,3.39-8.73,12.55-8.75,9.21-.02,12.58,3.54,12.59,8.7,0,5.24-3.35,8.77-12.55,8.79-9.17.02-12.58-3.5-12.59-8.74Z" class="cls-1"></path>
  <polygon points="67.93 84.22 65.87 83.05 60.44 94.97 36.54 84.09 35.45 86.49 61.5 98.35 67.93 84.22" class="cls-1"></polygon>
  <path d="M78.44,70.34l-4.4-8.43,8.54-7.68,7.94,5.24,1.99-1.79-24.67-16.31-4.94,4.44,13.66,26.21,1.88-1.68ZM65.83,46.2l1.97-1.77,12.87,8.4-7.8,7.01-7.04-13.64Z" class="cls-1"></path>
  <path d="M92.61,39.76c3.61.36,7.72-1.07,10.85-.06,1.27.4,2.32,1.18,3.04,2.65,1.68,3.41-.66,6.66-5.26,8.91-2.37,1.16-4.53,1.77-6.62,2.05l.74,2.14c2.26-.31,4.52-1.06,7-2.28,5.17-2.54,8.99-7.04,6.43-12.25-1.36-2.77-3.34-3.8-5.59-4.12-2.88-.42-6.11.45-8.83.45-2.22.02-4.1-.44-5.14-2.56-1.48-3.02.1-5.8,3.48-7.46,1.69-.83,3.36-1.25,4.54-1.38l-.7-2.07c-1.38.19-3.05.52-5.2,1.57-4.13,2.03-6.46,6.2-4.34,10.51,1.34,2.73,3.39,3.64,5.61,3.89Z" class="cls-1"></path>
  <path d="M116.87,30.14c3.4,1.27,7.74.93,10.51,2.7,1.12.71,1.94,1.73,2.27,3.34.75,3.73-2.33,6.27-7.35,7.29-2.59.52-4.83.57-6.92.3l.17,2.25c2.26.28,4.64.12,7.35-.42,5.65-1.14,10.48-4.53,9.33-10.22-.61-3.02-2.26-4.53-4.36-5.41-2.68-1.13-6.03-1.11-8.65-1.8-2.15-.55-3.85-1.47-4.32-3.79-.67-3.29,1.56-5.58,5.25-6.33,1.84-.37,3.57-.35,4.74-.18l-.16-2.17c-1.38-.17-3.08-.28-5.43.2-4.51.91-7.82,4.36-6.87,9.06.6,2.98,2.36,4.38,4.44,5.19Z" class="cls-1"></path>
  <path d="M150.18,43.89c7.09.7,11.86-3.57,12.87-13.73,1.01-10.16-2.83-15.25-9.92-15.95-7.17-.71-11.89,3.53-12.9,13.68-1.01,10.16,2.79,15.28,9.96,15.99ZM142.93,28.16c.9-9.12,4.74-12.16,9.96-11.64,5.14.51,8.35,4.25,7.44,13.37-.91,9.16-4.79,12.16-9.93,11.65-5.22-.52-8.39-4.21-7.48-13.37Z" class="cls-1"></path>
  <path d="M177.47,51.31c2.02.87,4.55,1.47,7.04,1.45l.12-2.21c-2.1.02-4.3-.54-6.17-1.34-5.23-2.24-6.95-7.16-3.49-15.22,3.35-7.8,8.38-10.09,13.23-8,3.24,1.39,4.75,3.04,5.08,6.23l2.25-.78c-.42-3.49-2.04-5.71-6.42-7.59-5.92-2.54-12.53-.54-16.65,9.06-4.21,9.82-1.47,15.62,5.01,18.39Z" class="cls-1"></path>
  <path d="M199.7,64.89l8.41-4.43,7.71,8.52-5.22,7.96,1.8,1.99,16.22-24.73-4.46-4.93-26.16,13.75,1.69,1.87ZM223.8,52.2l1.77,1.96-8.35,12.91-7.04-7.78,13.62-7.09Z" class="cls-1"></path>
  <polygon points="216.56 86.8 217.78 89.09 240.94 76.71 245.17 84.62 247.35 83.68 237.68 65.61 235.6 66.72 239.71 74.42 216.56 86.8" class="cls-1"></polygon>
  <path d="M240.95,111.65c-10.19.56-14.68,5.09-14.29,12.28.38,7.12,5.34,11.18,15.53,10.63,10.19-.55,14.64-5.12,14.25-12.24-.39-7.19-5.3-11.22-15.49-10.67ZM254.12,122.44c.28,5.16-2.93,8.9-12.08,9.39-9.19.5-12.74-2.88-13.02-8.03-.28-5.24,2.89-8.93,12.08-9.43,9.15-.49,12.74,2.84,13.03,8.07Z" class="cls-1"></path>
  <polygon points="226.18 144.92 249.44 151.82 221.45 160.64 220.71 163.09 248.18 171.29 248.9 168.87 225.53 161.94 253.59 153.15 254.33 150.69 226.9 142.5 226.18 144.92" class="cls-1"></polygon>
  <path d="M141.35,56.07c-39.36,0-71.39,32.02-71.39,71.39s32.02,71.39,71.39,71.39,71.38-32.02,71.38-71.39-32.02-71.39-71.38-71.39ZM163.46,171.52c-6.82-1.64-11.87-4.77-15.45-7.23,11.22-5.92,20.46-9.99,28.7-8.03,4.26,1.02,7.15,2.67,8.35,4.78.89,1.55.96,3.46.23,5.82-1.54,5-11.54,7.13-21.84,4.66ZM199.05,156.53c-.96,2.84-3.42,5.67-7.32,8.47.2-2.54-.28-4.86-1.46-6.93-2.08-3.64-6.17-6.21-12.17-7.64-11.82-2.82-24.26,3.89-38.67,11.65-3.65,1.97-7.43,4-11.4,6-11.71,5.9-28.25,9.98-40.59-4.05-2.25-2.56-3.39-6.33-3.94-10.06,1.99,1.28,4.12,1.94,6.37,1.95h.05c4.18,0,8.43-2.26,12.65-6.72,8.36-8.84,8.77-22.97,9.24-39.34.12-4.14.24-8.42.49-12.85.65-11.33,4.57-30.69,23.59-33.1,4.92-.62,9.02.11,12.49,1.5-2.62,1.1-4.6,2.78-5.92,5.03-2.11,3.62-2.29,8.45-.53,14.36,3.47,11.65,15.5,19.07,29.43,27.66,3.53,2.18,7.18,4.43,10.9,6.87,10.97,7.19,22.78,19.48,16.79,37.17ZM91.63,125.98c4.83-5.08,10.07-7.89,13.99-9.76-.48,12.68-1.58,22.71-7.4,28.87-3.01,3.18-5.87,4.87-8.32,4.84-1.79,0-3.47-.89-5.16-2.71-3.56-3.83-.41-13.56,6.89-21.24ZM168.98,103.95c-10.74-6.76-18.88-12.72-21.3-20.84-1.25-4.2-1.26-7.53-.03-9.63.9-1.54,2.51-2.56,4.93-3.12.35-.08.7-.12,1.06-.12,4.95,0,11.09,7.24,13.88,16.7,1.99,6.73,1.8,12.66,1.46,17ZM117.91,66.18c-6.76,6.69-10.81,17.11-11.58,30.5-.25,4.44-.38,8.7-.5,12.82-.36.17-.74.35-1.15.54-4.15,1.94-11.09,5.18-17.4,11.82-6.12,6.44-9.58,13.75-9.93,19.89h-.04c-1.02-4.61-1.58-9.38-1.58-14.29,0-27.93,17.55-51.83,42.19-61.28ZM100.38,178.67c2.43.56,4.96.85,7.58.85,7.04,0,14.71-2.02,22.77-6.08,3.97-2,7.72-4.02,11.35-5.98.32.22.67.46,1.03.72,3.76,2.63,10.04,7.03,18.95,9.17,8.44,2.03,16.32,1.45,21.81-1.17l.04.09c.89-.41,1.73-.82,2.57-1.24-11.77,11.17-27.66,18.05-45.13,18.05-15.49,0-29.73-5.41-40.97-14.41ZM205.78,139.88c-2.3-9.53-9.14-18.27-20.23-25.54-3.72-2.44-7.34-4.68-10.85-6.84.03-.38.07-.79.11-1.22.4-4.57,1.06-12.22-1.54-21.02-2.35-7.95-6.51-14.27-11.24-17.82l.05-.05c-.93-.85-2.3-2.09-4.08-3.4,28.15,7.39,48.98,33.04,48.98,63.48,0,4.25-.42,8.4-1.2,12.42Z" class="cls-1"></path>
  <path d="M79.67,187.76c-5.27-5.26-11.69-5.06-18.91,2.16-7.21,7.22-7.44,13.68-2.17,18.94,5.24,5.23,11.72,5.03,18.94-2.19,7.21-7.22,7.38-13.68,2.14-18.91ZM62.02,205.43c-2.35-2.35-2.86-5.74,2.82-11.44,5.66-5.67,9.05-5.16,11.41-2.81,2.32,2.32,2.89,5.77-2.77,11.44-5.69,5.69-9.14,5.13-11.46,2.81Z" class="cls-1"></path>
  <path d="M98.21,201.83c-2.73-1.52-6.23-3.05-7.82-3.65l-13.89,25.03,4.8,2.66,4.89-8.82,1.23.68c.7.39,1.42.74,2.09,1.02l-.23,11.55,5.32,2.95.13-13.11c3.52.35,6.56-.94,8.6-4.61,3.28-5.92.16-10.76-5.13-13.7ZM98.31,212.78c-1.96,3.53-5.41,2.9-8.42,1.23l-1.54-.86,4.82-8.68c.9.36,1.92.84,2.76,1.3,2.17,1.2,4.25,3.64,2.39,7Z" class="cls-1"></path>
  <path d="M120.44,215.6c2.14.51,3.92,1.52,4.74,4.6l4.27-2.35c-1.02-3.46-2.94-5.77-7.88-6.96-6.5-1.56-12.91,1.47-15.35,11.63-2.49,10.39,1.42,15.7,8.54,17.41,2.68.64,6.37.91,9.16.59l3.17-13.2-8.8-2.11-1.49,4.34,4.44,1.07-1.24,5.18c-1.31-.03-2.59-.17-4-.51-4.52-1.08-5.63-5.34-4.17-11.42,1.38-5.76,4.14-9.34,8.61-8.27Z" class="cls-1"></path>
  <path d="M138.98,213.81l-5.41,28.83,5.24-.18,1.44-8.06,8.48-.29,2.08,7.94,5.6-.19-7.6-28.38-9.84.34ZM141.06,229.6l2.05-11.33,1.52-.05,2.95,11.15-6.52.23Z" class="cls-1"></path>
  <polygon points="174.37 207.24 180.66 225.86 162.3 211.27 157.36 212.91 166.41 240.07 171.34 238.42 165.13 220.03 183.36 234.46 188.37 232.79 179.31 205.6 174.37 207.24" class="cls-1"></polygon>
  <path d="M220.76,204.53c-3.32,3.24-7.5,1.89-11.86-2.58-4.14-4.24-5.7-8.48-2.41-11.69,1.57-1.54,3.4-2.54,6.42-1.56l.28-4.87c-3.47-.98-6.45-.59-10.09,2.96-4.79,4.67-5.63,11.71,1.66,19.18,7.47,7.65,14.01,7.19,19.28,2.05,1.6-1.57,3.16-3.87,4.12-6.21l-4.05-2.03c-.73,1.6-1.82,3.23-3.37,4.74Z" class="cls-1"></path>
  <rect transform="translate(45.71 182.7) rotate(-54.62)" height="2.66" width="28.6" y="45.76" x="185.47" class="cls-1"></rect>
  <rect transform="translate(-18.69 72.89) rotate(-16.8)" height="2.66" width="28.61" y="98.41" x="223.15" class="cls-1"></rect>
  <rect transform="translate(-83.14 136.31) rotate(-32.15)" height="28.58" width="5.52" y="198.12" x="192.19" class="cls-1"></rect>
  <rect transform="translate(-68.04 124.04) rotate(-76.51)" height="28.6" width="2.66" y="90.87" x="43.31" class="cls-1"></rect>
</svg>