<svg viewBox="0 0 283.46 283.46" xmlns="http://www.w3.org/2000/svg" data-name="Layer 1" id="Layer_1">
  <defs>
    <style>
      .cls-1 {
        fill: #6d6e71;
      }

      .cls-2 {
        fill: #4d4d4f;
      }
    </style>
  </defs>
  <path d="M82.22,137.77c-16.71,9.85-32.26,8.95-37.79,1.08-8.63-12.27,1.44-34.37,22.38-49.28,20.94-14.91,44.88-17.02,53.46-4.71,2.6,3.72,3.49,8.34,2.89,13.38h4.77c1.53-6.56.88-12.55-2.34-17.18-9.18-13.17-35.76-10.22-59.36,6.59-23.61,16.81-36.44,42-26.12,54.27,5.43,6.46,22.49,11.07,45-4.15" class="cls-1"></path>
  <g>
    <path d="M108.39,98.25c-2.07-15.27-22.13-10.79-37.01.12h1.01c12.06-8.5,27.4-10.03,31.71-.12h4.29Z" class="cls-1"></path>
    <path d="M100.74,137.94c-30.97,27.7-63.86,28.74-74.07,14.21-12.95-18.42,2.16-51.57,33.58-73.95,31.42-22.37,67.33-25.54,80.21-7.07,5.1,7.32,7.04,16.76,4.09,27.1h5.64c4.77-12.63,4.25-24.19-1.74-32.79-13.77-19.76-53.65-15.33-89.07,9.89-35.42,25.22-54.67,63.01-39.19,81.43,9.4,11.18,42.06,18.91,83.69-18.83" class="cls-1"></path>
  </g>
  <path d="M93.84,163.95c-.23.14-.46.28-.69.43,13.32-7.56,24.86-16.49,34.47-26.64.01-.01-2.68,0-2.68,0-.01.01-19.31,18.9-31.1,26.22h0Z" class="cls-1"></path>
  <path d="M73.66,103.88l2.4,13.47c.34,1.98.41,4,.6,5.99h.08c.26-1.98.41-4,.82-5.99l2.81-13.47h4.42l3.59,19.46h.08c.19-1.98.22-3.93.56-5.91l2.21-13.54h5.84l-5.84,28.21h-4.83l-2.88-14.89c-.19-1.72-.52-3.44-.79-5.16h-.07c-.3,1.72-.49,3.44-.9,5.16l-3.22,14.89h-4.87l-5.69-28.21h5.69Z" class="cls-2"></path>
  <polygon points="113.96 103.88 113.96 109.12 108.3 109.12 108.3 115.25 113.28 115.25 113.28 120.49 108.3 120.49 108.3 126.85 114.03 126.85 114.03 132.09 102.72 132.09 102.72 103.88 113.96 103.88 113.96 103.88" class="cls-2"></polygon>
  <polygon points="128.22 103.88 128.22 126.85 134.06 126.85 134.06 132.09 122.64 132.09 122.64 103.88 128.22 103.88 128.22 103.88" class="cls-2"></polygon>
  <polygon points="154.56 103.88 154.56 109.12 150.15 109.12 150.15 132.09 144.57 132.09 144.57 109.12 140.19 109.12 140.19 103.88 154.56 103.88 154.56 103.88" class="cls-2"></polygon>
  <polygon points="168.55 103.88 168.55 126.85 174.39 126.85 174.39 132.09 162.98 132.09 162.98 103.88 168.55 103.88 168.55 103.88" class="cls-2"></polygon>
  <path d="M190.05,115.4l-.64-4.26h-.07l-.6,4.26-1.2,7.52h3.93l-1.42-7.52h0ZM192.52,103.88l6.78,28.21h-5.95l-1.05-4.75h-5.65l-1.01,4.75h-5.54l6.55-28.21h5.88Z" class="cls-2"></path>
  <path d="M217.91,118.19c0-3.59-1.12-9.27-5.72-9.27v18.16c4.49.22,5.72-5.38,5.72-8.89h0ZM206.62,132.09v-28.18h4.22c.97,0,12.64-1.42,12.64,14.31,0,8.03-3.1,13.86-11.89,13.86h-4.97Z" class="cls-2"></path>
  <polygon points="242.9 103.88 242.9 109.12 237.25 109.12 237.25 115.25 242.23 115.25 242.23 120.49 237.25 120.49 237.25 126.85 242.98 126.85 242.98 132.09 231.67 132.09 231.67 103.88 242.9 103.88 242.9 103.88" class="cls-2"></polygon>
  <path d="M256.51,103.88l6.96,17.02.07-.07c-.34-1.35-.45-2.81-.45-4.27v-12.68h5.58v28.21h-5.28l-6.89-17.02-.08.07.26,2.84.04,1.16v12.94h-5.58v-28.21h5.36Z" class="cls-2"></path>
  <path d="M142.41,145.28v13.11c3.18.11,3.04-3.39,3.04-6.26,0-2.6.21-7.07-3.04-6.85h0ZM142.64,143.37c2.27,0,4.85.18,4.85,8.76,0,7.81-2.23,8.17-5.68,8.17h-1.33v-16.93h2.16Z" class="cls-2"></path>
  <path d="M157.07,152.8l-.73-6.15h-.04l-1.16,8.6h2.31l-.39-2.45h0ZM157.11,143.37l3.12,16.93h-1.95l-.54-3.3h-2.89l-.54,3.3h-1.89l3.16-16.93h1.52Z" class="cls-2"></path>
  <path d="M171.19,145.69c-.39-.22-.79-.43-1.23-.43-2.7,0-2.72,4.58-2.72,6.69,0,2.24.15,6.47,2.79,6.47.42,0,.79-.11,1.16-.34v1.98c-.48.36-.98.47-1.54.47-3.93,0-4.45-4.87-4.45-8.42s.37-8.96,4.32-8.96c.65,0,1.12.11,1.68.49v2.04h0Z" class="cls-2"></path>
  <polygon points="178.66 143.37 178.66 149.97 181.57 149.97 181.57 143.37 183.5 143.37 183.5 160.3 181.57 160.3 181.57 151.93 178.66 151.93 178.66 160.3 176.74 160.3 176.74 143.37 178.66 143.37 178.66 143.37" class="cls-2"></polygon>
  <polygon points="190.8 143.37 192.45 156.1 192.49 156.1 192.59 155.05 193.36 149.35 194.25 143.37 196.08 143.37 193.22 160.3 191.68 160.3 188.87 143.37 190.8 143.37 190.8 143.37" class="cls-2"></polygon>
  <polygon points="206.61 143.37 206.61 145.33 203.36 145.33 203.36 150.65 206.27 150.65 206.27 152.6 203.36 152.6 203.36 158.35 206.61 158.35 206.61 160.3 201.43 160.3 201.43 143.37 206.61 143.37 206.61 143.37" class="cls-2"></polygon>
  <path d="M216.05,148.2c0-1.62-.17-2.96-1.64-2.92h-.31v5.59c1.44.11,1.95-.97,1.95-2.67h0ZM212.18,143.37h2.31c1.41,0,3.6.09,3.6,4.33,0,1.59-.4,4.02-2,4.36l2.68,8.24h-2l-2.62-8.28h-.04v8.28h-1.93v-16.93h0Z" class="cls-2"></path>
  <path d="M226.09,158.39c1.68.09,2.1-.92,2.1-2.78s-.33-3.03-2.1-2.99v5.77h0ZM226.41,145.28h-.33v5.55c1.79.09,2.04-1.21,2.04-3.01,0-1.32-.39-2.56-1.71-2.54h0ZM224.26,160.3v-16.93h2.41c2.62,0,3.35,1.68,3.35,4.53,0,1.66-.29,3.28-1.83,3.75v.04c1.66.61,2.04,2.09,2.04,3.97,0,3.12-.98,4.62-3.66,4.62h-2.31Z" class="cls-2"></path>
  <path d="M239.92,152.8l-.73-6.15h-.04l-1.16,8.6h2.31l-.39-2.45h0ZM239.95,143.37l3.12,16.93h-1.95l-.54-3.3h-2.89l-.54,3.3h-1.89l3.16-16.93h1.52Z" class="cls-2"></path>
  <polygon points="250.05 148.4 250.34 154.08 250.34 160.3 248.41 160.3 248.41 143.37 250.26 143.37 253.65 156.24 253.69 156.19 253.23 149.41 253.23 143.37 255.15 143.37 255.15 160.3 253.36 160.3 249.97 147.26 249.93 147.3 250.05 148.4 250.05 148.4" class="cls-2"></polygon>
  <path d="M263.49,145.28v13.11c3.18.11,3.04-3.39,3.04-6.26,0-2.6.21-7.07-3.04-6.85h0ZM263.72,143.37c2.27,0,4.85.18,4.85,8.76,0,7.81-2.23,8.17-5.68,8.17h-1.33v-16.93h2.16Z" class="cls-2"></path>
</svg>